# xmcd
#
# Track frame offsets:
#	150
#	10285
#	30402
#	47312
#	66442
#	83275
#	99337
#	114970
#	131857
#	148197
#	165825
#	184215
#	197712
#	215255
#	230677
#
# Disc length: 3324 seconds
#
# Revision: 11
# Processed by: cddbd v1.5.2PL0 Copyright (c) Steve Scherf et al.
# Submitted via: EZCDAudioConverter 8.2.2.1
#
DISCID=bf0cfa0f
DTITLE=ZEZÉ DI CAMARGO and LUCIANO - A MINHA HISTÓRIA [CD 2515679) COLUMBIA
DYEAR=2005
DGENRE=Country
TTITLE0=A MINHA HISTÓRIA (BY GILMAR SINISTRO)
TTITLE1=FUI EU (BY GILMAR SINISTRO)
TTITLE2=FERA MANSA (BY GILMAR SINISTRO)
TTITLE3=ÁTOMOS (BY GILMAR SINISTRO)
TTITLE4=FOI (BY GILMAR SINISTRO)
TTITLE5=APAIXONADO POR VOCÊ (BY GILMAR SINISTRO)
TTITLE6=MEU DESTINO TE ESCOLHEU (BY GILMAR SINISTRO)
TTITLE7=MEU CORAÇÃO (BY GILMAR SINISTRO)
TTITLE8=FICA DE UMA VEZ (BY GILMAR SINISTRO)
TTITLE9=MIL ANOS DE AMOR (BY GILMAR SINISTRO)
TTITLE10=VAI DAR TUDO CERTO (BY GILMAR SINISTRO)
TTITLE11=SOU PARADA DURA (BY GILMAR SINISTRO)
TTITLE12=CORAÇÃO DE MULHER (BY GILMAR SINISTRO)
TTITLE13=PAGUEI PRA VER (BY GILMAR SINISTRO)
TTITLE14=AGORA AGÜENTA NÓIS (BY GILMAR SINISTRO)
EXTD=
EXTT0=
EXTT1=
EXTT2=
EXTT3=
EXTT4=
EXTT5=
EXTT6=
EXTT7=
EXTT8=
EXTT9=
EXTT10=
EXTT11=
EXTT12=
EXTT13=
EXTT14=
PLAYORDER=
